<svg width="235" height="182" viewBox="0 0 235 182" fill="none" xmlns="http://www.w3.org/2000/svg">
<path fill-rule="evenodd" clip-rule="evenodd" d="M84.6589 58.7054C51.5218 58.7054 24.6589 85.5683 24.6589 118.705V122C24.6589 155.137 51.5219 182 84.6589 182H150.541C183.678 182 210.541 155.137 210.541 122V118.705C210.541 85.5683 183.678 58.7054 150.541 58.7054H84.6589ZM86.0011 80.3527C64.1695 80.3527 46.4715 98.0507 46.4715 119.882C46.4715 141.714 64.1695 159.412 86.0011 159.412H149.199C171.03 159.412 188.728 141.714 188.728 119.882C188.728 98.0507 171.03 80.3527 149.199 80.3527H86.0011Z" fill="white"/>
<ellipse cx="80.1388" cy="113.765" rx="11.8547" ry="17.4118" fill="white"/>
<ellipse cx="153.164" cy="113.765" rx="11.8547" ry="17.4118" fill="white"/>
<path d="M20.8643 93.5293L3.89528 97.3188C-1.14876 113.598 -1.44596 122.724 3.89528 139.003L19.6074 141.529C16.5892 122.781 16.9147 112.273 20.8643 93.5293Z" fill="white"/>
<path d="M213.385 93.5293L230.354 97.3188C235.398 113.598 235.695 122.724 230.354 139.003L214.642 141.529C217.66 122.781 217.335 112.273 213.385 93.5293Z" fill="white"/>
<path d="M99.6311 138.64C101.239 136.589 104.218 136.219 106.285 137.815C113.155 143.117 121.646 143.187 128.396 137.849C130.444 136.229 133.427 136.564 135.06 138.597C136.692 140.629 136.355 143.59 134.307 145.21C124.008 153.355 110.664 153.118 100.463 145.244C98.3957 143.648 98.0233 140.692 99.6311 138.64Z" fill="white"/>
<path d="M107.167 33.2935H127.083V52.1171H107.167V33.2935Z" fill="white"/>
<ellipse cx="117.125" cy="13.9483" rx="14.055" ry="13.9483" fill="white"/>
</svg>
